<?xml version="1.0" encoding="UTF-8"?><svg id="Laag_2" xmlns="http://www.w3.org/2000/svg" viewBox="0 0 1075 405.78"><defs><style>.cls-1{fill:#2d2a28;}</style></defs><g id="Laag_13"><path class="cls-1" d="M1072.75,167.34c-3.62-20.72-16.13-38.32-33.25-50.22-53.97-39.05-120.43,6.46-161.17,44.84,6.97-46.67,49.8-171.9-35.74-161.34-41.05,8.99-81.77,31.41-117.68,62.14H381.26l-43.09,291.34V62.77H190.41V353.67L147.75,62.77H0L57.61,371.3H471.41l34.74-186.09h40.19v186.09h73.9c21.34,31.72,61.37,48,96.71,20.42,26.7-21.37,33.74-57.51,45.02-88.18,23.48-74.01,45.19-149.3,81.61-218.24-26.71,78.7-40.02,164.39-21.36,246.62,5.07,22.25,14.77,44.12,31.62,59.89,21.19,20.13,49.19,18.4,63.07-8.67,10.1-19.41,13.95-41.28,20.95-61.88,17.35-54.75,36.03-110.23,60.19-161.94-14.5,57.47-22.71,117.43-11.58,176.26,3.95,23,10.88,45.3,19.85,66.83,.47,1.17,.9,2.47,2.65,2.14,15.43-43.71,31.35-87.13,47.72-130.47,12.61-33.79,23.07-70.45,16.07-106.73Z"/></g></svg>